<?xml version="1.0" encoding="utf-8"?>
<!-- Generator: Adobe Illustrator 24.2.1, SVG Export Plug-In . SVG Version: 6.00 Build 0)  -->
<svg version="1.1" id="Layer_1" xmlns="http://www.w3.org/2000/svg" xmlns:xlink="http://www.w3.org/1999/xlink" x="0px" y="0px"
	 viewBox="0 0 803.7 117" style="enable-background:new 0 0 803.7 117;" xml:space="preserve">
<g>
	<g>
		<path d="M35.4,32.9c4.3-2.2,9.3-3.3,15.1-3.3c9.4,0,16.8,2.8,22.3,8.4c5.5,5.6,8.3,13.2,8.3,22.8v53.6h-25V67.6
			c0-4.4-1.2-7.9-3.5-10.7c-2.3-2.8-5.9-4.1-10.5-4.1c-5.6,0-9.9,2.1-12.7,6.2c-2.9,4.2-4.3,9.3-4.3,15.5v40H0V32.3h23.4l1.6,8.6
			C27.6,37.8,31,35.1,35.4,32.9z"/>
		<path d="M113.8,114c-5.2-2-9.8-4.8-13.7-8.6c-3.9-3.7-7-8.3-9.3-13.7c-2.3-5.4-3.4-11.5-3.4-18.3c0-6.9,1.1-13,3.4-18.3
			c2.3-5.4,5.4-9.9,9.3-13.7c3.9-3.7,8.5-6.6,13.7-8.7c5.2-2,10.7-3,16.6-3c5.8,0,11.4,1,16.6,3c5.3,2,9.8,4.9,13.7,8.7
			c3.9,3.7,7,8.3,9.3,13.7c2.3,5.4,3.4,11.5,3.4,18.3c0,6.9-1.1,13-3.4,18.3c-2.3,5.4-5.4,9.9-9.3,13.7c-3.9,3.7-8.5,6.6-13.7,8.6
			c-5.3,2-10.8,3-16.6,3C124.5,117,119,116,113.8,114z M117.3,59c-3.3,3.9-4.9,8.7-4.9,14.4c0,5.7,1.6,10.5,4.9,14.4
			c3.3,3.9,7.6,5.9,13,5.9c5.4,0,9.8-2,13.1-5.9c3.3-3.9,5-8.7,5-14.4c0-5.7-1.7-10.5-5-14.4c-3.3-3.9-7.7-5.9-13.1-5.9
			C124.9,53.1,120.6,55,117.3,59z"/>
		<path d="M244.3,110.3c-6.4,4.5-14.7,6.7-25.1,6.7c-5.8,0-11.3-1-16.5-3s-9.7-4.8-13.6-8.6c-3.9-3.7-7-8.3-9.2-13.7
			c-2.2-5.4-3.4-11.5-3.4-18.3c0-6.9,1.1-13,3.4-18.3c2.2-5.4,5.3-9.9,9.2-13.7c3.9-3.7,8.4-6.6,13.6-8.7c5.2-2,10.6-3,16.5-3
			c10.7,0,19.4,2.6,26,7.7c6.6,5.2,10.8,12.6,12.4,22.3l-23.1,4.5c-1-3.4-2.9-6.1-5.5-8.1c-2.7-2-6-3-9.9-3c-2.7,0-5.1,0.5-7.3,1.5
			c-2.1,1-4,2.4-5.5,4.3c-1.5,1.9-2.7,4-3.5,6.5c-0.8,2.4-1.2,5.1-1.2,8c0,2.9,0.4,5.6,1.2,8c0.8,2.4,2,4.6,3.5,6.4s3.4,3.3,5.5,4.3
			c2.2,1,4.6,1.6,7.2,1.6c4.2,0,7.5-1.1,10-3.4c2.5-2.3,4.3-5.4,5.5-9.4l24,8C255.4,98.6,250.7,105.8,244.3,110.3z"/>
		<path d="M287.8,114c-5.2-2-9.8-4.8-13.7-8.6c-3.9-3.7-7-8.3-9.3-13.7c-2.3-5.4-3.4-11.5-3.4-18.3c0-6.9,1.1-13,3.4-18.3
			c2.3-5.4,5.4-9.9,9.3-13.7c3.9-3.7,8.5-6.6,13.7-8.7c5.2-2,10.7-3,16.6-3c5.8,0,11.4,1,16.6,3c5.3,2,9.8,4.9,13.7,8.7
			c3.9,3.7,7,8.3,9.3,13.7c2.3,5.4,3.4,11.5,3.4,18.3c0,6.9-1.1,13-3.4,18.3c-2.3,5.4-5.4,9.9-9.3,13.7c-3.9,3.7-8.5,6.6-13.7,8.6
			s-10.8,3-16.6,3C298.6,117,293,116,287.8,114z M291.3,59c-3.3,3.9-4.9,8.7-4.9,14.4c0,5.7,1.6,10.5,4.9,14.4
			c3.3,3.9,7.6,5.9,13,5.9c5.4,0,9.8-2,13.1-5.9c3.3-3.9,5-8.7,5-14.4c0-5.7-1.7-10.5-5-14.4c-3.3-3.9-7.7-5.9-13.1-5.9
			C299,53.1,294.6,55,291.3,59z"/>
		<path d="M378.5,2.5v112h-25V2.5H378.5z"/>
		<path d="M411.1,114c-5.2-2-9.8-4.8-13.7-8.6c-3.9-3.7-7-8.3-9.3-13.7c-2.3-5.4-3.4-11.5-3.4-18.3c0-6.9,1.1-13,3.4-18.3
			c2.3-5.4,5.4-9.9,9.3-13.7c3.9-3.7,8.5-6.6,13.7-8.7c5.2-2,10.7-3,16.6-3c5.8,0,11.4,1,16.6,3c5.3,2,9.8,4.9,13.7,8.7
			c3.9,3.7,7,8.3,9.3,13.7c2.3,5.4,3.4,11.5,3.4,18.3c0,6.9-1.1,13-3.4,18.3c-2.3,5.4-5.4,9.9-9.3,13.7c-3.9,3.7-8.5,6.6-13.7,8.6
			s-10.8,3-16.6,3C421.8,117,416.3,116,411.1,114z M414.6,59c-3.3,3.9-4.9,8.7-4.9,14.4c0,5.7,1.6,10.5,4.9,14.4
			c3.3,3.9,7.6,5.9,13,5.9c5.4,0,9.8-2,13.1-5.9c3.3-3.9,5-8.7,5-14.4c0-5.7-1.7-10.5-5-14.4c-3.3-3.9-7.7-5.9-13.1-5.9
			C422.3,53.1,417.9,55,414.6,59z"/>
		<path d="M522,53c-1.1-0.2-2.4-0.2-3.8-0.2c-4.8,0-8.7,1.7-11.6,5.2c-3,3.4-4.4,8.3-4.4,14.5v42h-25V32.3h23.4l1.4,8.7
			c1.8-3.3,4.3-6.1,7.7-8.2c3.3-2.1,7.5-3.2,12.6-3.2c1,0,2.2,0.1,3.5,0.3c1.3,0.2,2.4,0.5,3.4,0.8L525.4,54
			C524.2,53.5,523.1,53.2,522,53z"/>
		<path d="M558.9,2.5v112h-25V2.5H558.9z"/>
		<path d="M594.8,91.9c3.3,2.9,7.7,4.3,13.1,4.3c4.8,0,8.7-1.1,11.8-3.2c3.1-2.1,5.3-4.9,6.8-8.4l21.2,7.7
			c-3.7,7.9-8.8,14-15.2,18.3c-6.4,4.3-14.6,6.4-24.6,6.4c-6.5,0-12.3-1.1-17.6-3.3c-5.3-2.2-9.8-5.2-13.5-9.1
			c-3.7-3.9-6.6-8.5-8.7-13.9c-2-5.4-3-11.2-3-17.6c0-6,1.1-11.7,3.4-17c2.2-5.3,5.3-9.9,9.2-13.8c3.9-3.9,8.4-7,13.6-9.2
			c5.2-2.2,10.6-3.4,16.5-3.4c5.7,0,11.1,0.9,16.2,2.7c5,1.8,9.4,4.5,13.1,8c3.7,3.5,6.6,7.9,8.7,13.2S649,65,649,72v8.4h-60
			C589.5,85.2,591.5,89,594.8,91.9z M596.1,53.3c-3.2,2.6-5.4,5.9-6.6,10.1H626c-0.4-3.6-2.1-6.9-5.1-9.7c-3-2.8-7.4-4.2-13.4-4.2
			C603.1,49.5,599.3,50.8,596.1,53.3z"/>
		<path d="M659.3,32.3v-2c0-5.7,0.8-10.5,2.5-14.4c1.7-3.9,3.9-7,6.6-9.4c2.7-2.3,5.8-4,9.3-5S684.7,0,688.5,0
			c4.7,0,8.4,0.4,11.1,1.2v21.9c-1.1-0.4-2.2-0.7-3.1-0.9s-2-0.3-3.1-0.3c-3.3,0-5.7,1-7,2.9c-1.4,1.9-2,4.2-2,6.8v0.8h16.4v19.5
			h-16.4v62.6h-25V51.8h-10.8V32.3H659.3z"/>
		<path d="M712.5,32.3V11.1h25v21.2h14.7v19.5h-14.7v31.5c0,3,0.6,5.5,1.7,7.5c1.1,2,3.3,3,6.6,3c1,0,2.2-0.1,3.4-0.2
			c1.2-0.1,2.5-0.3,3.7-0.5v21.2c-1.6,0.4-3.4,0.7-5.5,0.9c-2.1,0.2-4.4,0.3-7,0.3c-3.7,0-7.3-0.5-10.7-1.5c-3.4-1-6.4-2.7-8.9-5
			c-2.6-2.3-4.6-5.5-6.1-9.4c-1.5-3.9-2.3-8.7-2.3-14.4V51.8h-10.8V32.3H712.5z"/>
	</g>
	<g>
		<g>
			<path d="M776.6,115.6c-2.4-0.9-4.4-2.2-6.2-3.9c-1.8-1.7-3.2-3.8-4.2-6.3c-1-2.5-1.6-5.2-1.6-8.3c0-3.1,0.5-5.9,1.6-8.3
				c1-2.4,2.5-4.5,4.2-6.2c1.8-1.7,3.8-3,6.2-3.9c2.4-0.9,4.9-1.4,7.5-1.4c2.7,0,5.2,0.5,7.6,1.4c2.4,0.9,4.5,2.2,6.3,3.9
				c1.8,1.7,3.2,3.8,4.2,6.2c1,2.4,1.6,5.2,1.6,8.3c0,3.1-0.5,5.9-1.6,8.3c-1,2.4-2.5,4.5-4.2,6.2c-1.8,1.7-3.9,3-6.3,3.9
				c-2.4,0.9-4.9,1.3-7.6,1.3C781.5,117,779,116.5,776.6,115.6z"/>
		</g>
	</g>
</g>
</svg>
