<svg id="logo-x" xmlns="http://www.w3.org/2000/svg" width="803.8" height="117" viewBox="0 0 803.8 117">
  <g id="Group_8" data-name="Group 8">
    <path id="Path_25" data-name="Path 25" d="M35.4,32.9a32.636,32.636,0,0,1,15.1-3.3c9.4,0,16.8,2.8,22.3,8.4s8.3,13.2,8.3,22.8v53.6h-25V67.6a16.2,16.2,0,0,0-3.5-10.7c-2.3-2.8-5.9-4.1-10.5-4.1-5.6,0-9.9,2.1-12.7,6.2-2.9,4.2-4.3,9.3-4.3,15.5v40H0V32.3H23.4L25,40.9A31.952,31.952,0,0,1,35.4,32.9Z" fill="#fff"/>
    <path id="Path_26" data-name="Path 26" d="M113.8,114a39.777,39.777,0,0,1-13.7-8.6,40.516,40.516,0,0,1-9.3-13.7,46.286,46.286,0,0,1-3.4-18.3,45.607,45.607,0,0,1,3.4-18.3,41.525,41.525,0,0,1,9.3-13.7,43.256,43.256,0,0,1,13.7-8.7,47.427,47.427,0,0,1,33.2,0,39.1,39.1,0,0,1,13.7,8.7A40.516,40.516,0,0,1,170,55.1a46.286,46.286,0,0,1,3.4,18.3A45.608,45.608,0,0,1,170,91.7,39.832,39.832,0,0,1,147,114a46.5,46.5,0,0,1-16.6,3A45.711,45.711,0,0,1,113.8,114Zm3.5-55a21.5,21.5,0,0,0-4.9,14.4,21.5,21.5,0,0,0,4.9,14.4,16.2,16.2,0,0,0,13,5.9,16.4,16.4,0,0,0,13.1-5.9,21.566,21.566,0,0,0,5-14.4,21.566,21.566,0,0,0-5-14.4,16.4,16.4,0,0,0-13.1-5.9A15.906,15.906,0,0,0,117.3,59Z" fill="#fff"/>
    <path id="Path_27" data-name="Path 27" d="M244.3,110.3c-6.4,4.5-14.7,6.7-25.1,6.7a45.563,45.563,0,0,1-16.5-3,39.359,39.359,0,0,1-13.6-8.6,38.906,38.906,0,0,1-9.2-13.7,48.127,48.127,0,0,1-3.4-18.3,45.608,45.608,0,0,1,3.4-18.3,39.832,39.832,0,0,1,9.2-13.7,42.8,42.8,0,0,1,13.6-8.7,45.176,45.176,0,0,1,16.5-3c10.7,0,19.4,2.6,26,7.7,6.6,5.2,10.8,12.6,12.4,22.3l-23.1,4.5a15.533,15.533,0,0,0-5.5-8.1,16.168,16.168,0,0,0-9.9-3,17.328,17.328,0,0,0-7.3,1.5,15.264,15.264,0,0,0-5.5,4.3,20.329,20.329,0,0,0-3.5,6.5,27.267,27.267,0,0,0,0,16,19.824,19.824,0,0,0,3.5,6.4,16.437,16.437,0,0,0,5.5,4.3,17.253,17.253,0,0,0,7.2,1.6c4.2,0,7.5-1.1,10-3.4a20.274,20.274,0,0,0,5.5-9.4l24,8C255.4,98.6,250.7,105.8,244.3,110.3Z" fill="#fff"/>
    <path id="Path_28" data-name="Path 28" d="M287.8,114a39.777,39.777,0,0,1-13.7-8.6,40.516,40.516,0,0,1-9.3-13.7,46.286,46.286,0,0,1-3.4-18.3,45.608,45.608,0,0,1,3.4-18.3,41.525,41.525,0,0,1,9.3-13.7,43.255,43.255,0,0,1,13.7-8.7,47.427,47.427,0,0,1,33.2,0,39.1,39.1,0,0,1,13.7,8.7A40.516,40.516,0,0,1,344,55.1a46.286,46.286,0,0,1,3.4,18.3A45.608,45.608,0,0,1,344,91.7,39.831,39.831,0,0,1,321,114a47.427,47.427,0,0,1-33.2,0Zm3.5-55a21.5,21.5,0,0,0-4.9,14.4,21.5,21.5,0,0,0,4.9,14.4,16.2,16.2,0,0,0,13,5.9,16.4,16.4,0,0,0,13.1-5.9,21.566,21.566,0,0,0,5-14.4,21.566,21.566,0,0,0-5-14.4,16.4,16.4,0,0,0-13.1-5.9A16.039,16.039,0,0,0,291.3,59Z" fill="#fff"/>
    <path id="Path_29" data-name="Path 29" d="M378.5,2.5v112h-25V2.5Z" fill="#fff"/>
    <path id="Path_30" data-name="Path 30" d="M411.1,114a39.777,39.777,0,0,1-13.7-8.6,40.516,40.516,0,0,1-9.3-13.7,46.286,46.286,0,0,1-3.4-18.3,45.608,45.608,0,0,1,3.4-18.3,41.525,41.525,0,0,1,9.3-13.7,43.255,43.255,0,0,1,13.7-8.7,47.427,47.427,0,0,1,33.2,0A39.1,39.1,0,0,1,458,41.4a40.516,40.516,0,0,1,9.3,13.7,46.286,46.286,0,0,1,3.4,18.3,45.608,45.608,0,0,1-3.4,18.3,39.831,39.831,0,0,1-23,22.3,47.427,47.427,0,0,1-33.2,0Zm3.5-55a21.5,21.5,0,0,0-4.9,14.4,21.5,21.5,0,0,0,4.9,14.4,16.2,16.2,0,0,0,13,5.9,16.4,16.4,0,0,0,13.1-5.9,21.566,21.566,0,0,0,5-14.4,21.566,21.566,0,0,0-5-14.4,16.4,16.4,0,0,0-13.1-5.9A16.039,16.039,0,0,0,414.6,59Z" fill="#fff"/>
    <path id="Path_31" data-name="Path 31" d="M522,53a22.366,22.366,0,0,0-3.8-.2A14.306,14.306,0,0,0,506.6,58c-3,3.4-4.4,8.3-4.4,14.5v42h-25V32.3h23.4L502,41a21.586,21.586,0,0,1,7.7-8.2c3.3-2.1,7.5-3.2,12.6-3.2a23.613,23.613,0,0,1,3.5.3,24.441,24.441,0,0,1,3.4.8L525.4,54A16.154,16.154,0,0,0,522,53Z" fill="#fff"/>
    <path id="Path_32" data-name="Path 32" d="M558.9,2.5v112h-25V2.5Z" fill="#fff"/>
    <path id="Path_33" data-name="Path 33" d="M594.8,91.9c3.3,2.9,7.7,4.3,13.1,4.3A20.536,20.536,0,0,0,619.7,93a18.724,18.724,0,0,0,6.8-8.4l21.2,7.7a43.873,43.873,0,0,1-15.2,18.3c-6.4,4.3-14.6,6.4-24.6,6.4a45.244,45.244,0,0,1-17.6-3.3,38.769,38.769,0,0,1-13.5-9.1,42.039,42.039,0,0,1-8.7-13.9,50.025,50.025,0,0,1-3-17.6,43.12,43.12,0,0,1,26.2-40,41.629,41.629,0,0,1,16.5-3.4A48.317,48.317,0,0,1,624,32.4a37.294,37.294,0,0,1,13.1,8,36.215,36.215,0,0,1,8.7,13.2A49.568,49.568,0,0,1,649,72v8.4H589A17.1,17.1,0,0,0,594.8,91.9Zm1.3-38.6a19.506,19.506,0,0,0-6.6,10.1H626a15.458,15.458,0,0,0-5.1-9.7c-3-2.8-7.4-4.2-13.4-4.2A18,18,0,0,0,596.1,53.3Z" fill="#fff"/>
    <path id="Path_34" data-name="Path 34" d="M659.3,32.3v-2c0-5.7.8-10.5,2.5-14.4a26.438,26.438,0,0,1,6.6-9.4,24.673,24.673,0,0,1,9.3-5A38.6,38.6,0,0,1,688.5,0a40.649,40.649,0,0,1,11.1,1.2V23.1a25.423,25.423,0,0,0-3.1-.9,14.822,14.822,0,0,0-3.1-.3c-3.3,0-5.7,1-7,2.9a11.15,11.15,0,0,0-2,6.8v.8h16.4V51.9H684.4v62.6h-25V51.8H648.6V32.3Z" fill="#fff"/>
    <path id="Path_35" data-name="Path 35" d="M712.5,32.3V11.1h25V32.3h14.7V51.8H737.5V83.3a15.4,15.4,0,0,0,1.7,7.5q1.65,3,6.6,3c1,0,2.2-.1,3.4-.2s2.5-.3,3.7-.5v21.2a37.136,37.136,0,0,1-5.5.9c-2.1.2-4.4.3-7,.3a37.9,37.9,0,0,1-10.7-1.5,22.359,22.359,0,0,1-8.9-5,23.616,23.616,0,0,1-6.1-9.4,40.241,40.241,0,0,1-2.3-14.4V51.8H701.6V32.3Z" fill="#fff"/>
  </g>
  <g id="Group_10" data-name="Group 10">
    <g id="Group_9" data-name="Group 9">
      <path id="Path_36" data-name="Path 36" d="M776.6,115.6a18.129,18.129,0,0,1-6.2-3.9,17.426,17.426,0,0,1-4.2-6.3,21.919,21.919,0,0,1-1.6-8.3,19.834,19.834,0,0,1,1.6-8.3,19.4,19.4,0,0,1,4.2-6.2,18.129,18.129,0,0,1,6.2-3.9,21.057,21.057,0,0,1,15.1,0,18.558,18.558,0,0,1,6.3,3.9,17.915,17.915,0,0,1,4.2,6.2,21.539,21.539,0,0,1,1.6,8.3,19.834,19.834,0,0,1-1.6,8.3,19.4,19.4,0,0,1-4.2,6.2,18.559,18.559,0,0,1-6.3,3.9,21.305,21.305,0,0,1-7.6,1.3A17.413,17.413,0,0,1,776.6,115.6Z" fill="#fff"/>
    </g>
  </g>
</svg>
